<svg width="21" height="15" viewBox="0 0 21 15" fill="none" xmlns="http://www.w3.org/2000/svg">
<path d="M19.7959 2.54591L7.7959 14.5459C7.69138 14.6508 7.56719 14.734 7.43044 14.7908C7.2937 14.8476 7.14709 14.8768 6.99902 14.8768C6.85096 14.8768 6.70435 14.8476 6.5676 14.7908C6.43085 14.734 6.30666 14.6508 6.20215 14.5459L0.952147 9.29591C0.8475 9.19127 0.764489 9.06703 0.707854 8.9303C0.65122 8.79358 0.62207 8.64703 0.62207 8.49904C0.62207 8.35105 0.65122 8.2045 0.707854 8.06777C0.764489 7.93105 0.8475 7.80681 0.952147 7.70216C1.05679 7.59752 1.18103 7.51451 1.31776 7.45787C1.45448 7.40124 1.60103 7.37209 1.74902 7.37209C1.89702 7.37209 2.04356 7.40124 2.18029 7.45787C2.31702 7.51451 2.44125 7.59752 2.5459 7.70216L6.99996 12.1562L18.204 0.954039C18.4154 0.742694 18.702 0.623962 19.0009 0.623962C19.2998 0.623962 19.5864 0.742694 19.7978 0.954039C20.0091 1.16538 20.1278 1.45203 20.1278 1.75091C20.1278 2.0498 20.0091 2.33644 19.7978 2.54779L19.7959 2.54591Z" fill="black"/>
</svg>
