<svg width="195" height="43" viewBox="0 0 195 43" fill="none" xmlns="http://www.w3.org/2000/svg">
<g clip-path="url(#clip0_74_559)">
<path d="M38.791 12.5323L34.9799 9.99264C34.2712 7.75058 32.7833 5.83626 30.7855 4.59611C28.7877 3.35595 26.412 2.87189 24.0883 3.23153C21.7646 3.59116 19.6463 4.77073 18.1169 6.55677C16.5874 8.34281 15.7479 10.6173 15.7501 12.9687V15.789L0.287199 35.1172C0.132608 35.3103 0.035724 35.5431 0.00771224 35.7888C-0.0202995 36.0346 0.0217016 36.2833 0.128875 36.5062C0.236047 36.7291 0.40403 36.9172 0.61346 37.0488C0.822891 37.1804 1.06524 37.2501 1.31259 37.25H18.3751C22.8989 37.2452 27.236 35.446 30.4348 32.2472C33.6336 29.0484 35.4328 24.7113 35.4376 20.1875V16.9522L38.791 14.7176C38.9711 14.5978 39.1187 14.4354 39.2208 14.2448C39.3229 14.0541 39.3764 13.8412 39.3764 13.625C39.3764 13.4087 39.3229 13.1958 39.2208 13.0052C39.1187 12.8146 38.9711 12.6521 38.791 12.5323ZM18.0716 23.6525L11.5091 31.5275C11.2863 31.7951 10.9663 31.9632 10.6196 31.9949C10.2728 32.0266 9.92769 31.9192 9.66009 31.6965C9.39249 31.4737 9.22435 31.1537 9.19266 30.807C9.16097 30.4602 9.26832 30.1151 9.4911 29.8475L16.0536 21.9725C16.1639 21.84 16.2992 21.7305 16.4519 21.6503C16.6045 21.5701 16.7714 21.5207 16.9431 21.5051C17.1148 21.4894 17.2879 21.5076 17.4525 21.5588C17.6172 21.6101 17.7701 21.6932 17.9026 21.8035C18.0351 21.9138 18.1446 22.0491 18.2248 22.2018C18.305 22.3544 18.3543 22.5213 18.37 22.693C18.3857 22.8647 18.3674 23.0378 18.3162 23.2024C18.265 23.3671 18.1819 23.52 18.0716 23.6525ZM26.9063 13.625C26.517 13.625 26.1363 13.5095 25.8126 13.2932C25.4888 13.0769 25.2365 12.7694 25.0875 12.4096C24.9384 12.0499 24.8995 11.6541 24.9754 11.2722C25.0514 10.8902 25.2389 10.5395 25.5142 10.2641C25.7896 9.98878 26.1404 9.80128 26.5223 9.72531C26.9042 9.64935 27.3 9.68834 27.6597 9.83735C28.0195 9.98636 28.327 10.2387 28.5433 10.5625C28.7596 10.8862 28.8751 11.2669 28.8751 11.6562C28.8751 12.1784 28.6677 12.6791 28.2985 13.0484C27.9292 13.4176 27.4285 13.625 26.9063 13.625Z" fill="#00AF66"/>
</g>
<path d="M70.96 30.5H67.024V11.78H57.04V30.5H53.104V8.1H70.96V30.5ZM79.7905 36.9H76.1105V16.1H79.7905V17.476C80.2598 16.964 80.8998 16.548 81.7105 16.228C82.5212 15.908 83.3638 15.748 84.2385 15.748C86.2225 15.748 87.8012 16.4307 88.9745 17.796C90.1692 19.1827 90.7665 20.9427 90.7665 23.076C90.7665 25.316 90.0625 27.172 88.6545 28.644C87.2465 30.116 85.4118 30.852 83.1505 30.852C81.6998 30.852 80.5798 30.6173 79.7905 30.148V36.9ZM83.0865 19.204C81.8065 19.204 80.7078 19.7267 79.7905 20.772V26.596C80.6652 27.1507 81.6785 27.428 82.8305 27.428C84.0465 27.428 85.0172 27.0333 85.7425 26.244C86.4892 25.4547 86.8625 24.4307 86.8625 23.172C86.8625 21.9773 86.5212 21.0173 85.8385 20.292C85.1772 19.5667 84.2598 19.204 83.0865 19.204ZM104.354 21.38L97.6343 30.5H93.9543V16.1H97.6343V25.22L104.354 16.1H108.034V30.5H104.354V21.38ZM112.142 30.5V16.1C112.334 16.1 113.144 16.0787 114.574 16.036C116.024 15.972 117.102 15.94 117.806 15.94C122.158 15.94 124.334 17.1987 124.334 19.716C124.334 20.5267 124.078 21.2413 123.566 21.86C123.054 22.4573 122.414 22.8093 121.646 22.916V22.98C123.694 23.4707 124.718 24.58 124.718 26.308C124.718 29.2093 122.435 30.66 117.87 30.66C117.208 30.66 116.195 30.628 114.83 30.564C114.488 30.564 114.094 30.5533 113.646 30.532C113.219 30.532 112.888 30.5213 112.654 30.5C112.44 30.5 112.27 30.5 112.142 30.5ZM118.126 24.388H115.822V27.588C117.102 27.6733 117.912 27.716 118.254 27.716C119.064 27.716 119.694 27.5667 120.142 27.268C120.611 26.9693 120.846 26.564 120.846 26.052C120.846 24.9427 119.939 24.388 118.126 24.388ZM118.126 18.916C117.272 18.916 116.504 18.9373 115.822 18.98V22.148H118.222C118.883 22.148 119.416 21.9987 119.822 21.7C120.227 21.4013 120.43 20.996 120.43 20.484C120.43 19.4387 119.662 18.916 118.126 18.916ZM133.388 30.5H128.204V16.1H131.884V20.036H133.676C135.831 20.036 137.42 20.484 138.444 21.38C139.49 22.276 140.012 23.492 140.012 25.028C140.012 26.6707 139.458 27.9933 138.348 28.996C137.239 29.9987 135.586 30.5 133.388 30.5ZM145.74 30.5H142.06V16.1H145.74V30.5ZM133.356 22.98H131.884V27.3H133.324C135.18 27.3 136.108 26.5853 136.108 25.156C136.108 23.7053 135.191 22.98 133.356 22.98ZM157.765 16.1H161.445V30.5H157.765V25.54C156.699 26.0947 155.504 26.372 154.181 26.372C152.389 26.372 151.067 25.9027 150.213 24.964C149.381 24.0253 148.965 22.6067 148.965 20.708V16.1H152.901V20.26C152.901 22.0307 153.68 22.916 155.237 22.916C156.24 22.916 157.083 22.724 157.765 22.34V16.1ZM174.54 16.1H179.18L173.644 22.948L179.852 30.5H175.052L169.356 23.236L174.54 16.1ZM169.228 30.5H165.548V16.1H169.228V30.5ZM183.137 19.812L182.209 17.124C183.766 16.2067 185.462 15.748 187.297 15.748C189.302 15.748 190.763 16.2387 191.681 17.22C192.598 18.2013 193.057 19.7053 193.057 21.732V30.5H189.857V28.836C189.003 30.0733 187.585 30.692 185.601 30.692C184.235 30.692 183.137 30.2973 182.305 29.508C181.494 28.6973 181.089 27.62 181.089 26.276C181.089 24.7827 181.569 23.6307 182.529 22.82C183.489 22.0093 184.758 21.604 186.337 21.604C187.638 21.604 188.726 21.9133 189.601 22.532C189.643 21.252 189.451 20.3133 189.025 19.716C188.619 19.1187 187.915 18.82 186.913 18.82C185.803 18.82 184.545 19.1507 183.137 19.812ZM186.817 27.588C188.054 27.588 188.982 27.1507 189.601 26.276V24.804C189.003 24.3347 188.161 24.1 187.073 24.1C186.39 24.1 185.835 24.26 185.409 24.58C184.982 24.9 184.769 25.3373 184.769 25.892C184.769 26.404 184.961 26.82 185.345 27.14C185.729 27.4387 186.219 27.588 186.817 27.588Z" fill="#121212"/>
<defs>
<clipPath id="clip0_74_559">
<rect width="42" height="42" fill="white" transform="translate(0 0.5)"/>
</clipPath>
</defs>
</svg>
