<svg width="21" height="21" viewBox="0 0 21 21" fill="none" xmlns="http://www.w3.org/2000/svg">
<path d="M19.5766 5.61315L15.3869 1.4244C15.0353 1.07289 14.5584 0.875427 14.0613 0.875427C13.5641 0.875427 13.0872 1.07289 12.7356 1.4244L1.17438 12.9847C0.999676 13.1583 0.861159 13.3649 0.766857 13.5925C0.672554 13.82 0.62434 14.064 0.625007 14.3103V18.5C0.625007 18.9973 0.822551 19.4742 1.17418 19.8259C1.52581 20.1775 2.00273 20.375 2.50001 20.375H18.25C18.5484 20.375 18.8345 20.2565 19.0455 20.0455C19.2565 19.8345 19.375 19.5484 19.375 19.25C19.375 18.9517 19.2565 18.6655 19.0455 18.4545C18.8345 18.2436 18.5484 18.125 18.25 18.125H9.71876L19.5766 8.26534C19.7508 8.09122 19.8889 7.88449 19.9832 7.65695C20.0775 7.42942 20.126 7.18554 20.126 6.93925C20.126 6.69295 20.0775 6.44907 19.9832 6.22154C19.8889 5.994 19.7508 5.78727 19.5766 5.61315ZM6.53126 18.125H2.87501V14.4688L10.75 6.59378L14.4063 10.25L6.53126 18.125ZM16 8.65628L12.3438 5.00003L14.0631 3.28065L17.7194 6.9369L16 8.65628Z" fill="black"/>
</svg>
