<svg width="21" height="20" viewBox="0 0 21 20" fill="none" xmlns="http://www.w3.org/2000/svg">
<path d="M20.875 3.25005V7.75005C20.875 8.04842 20.7564 8.33456 20.5455 8.54554C20.3345 8.75652 20.0483 8.87505 19.75 8.87505H15.25C14.9516 8.87505 14.6655 8.75652 14.4545 8.54554C14.2435 8.33456 14.125 8.04842 14.125 7.75005C14.125 7.45168 14.2435 7.16553 14.4545 6.95455C14.6655 6.74357 14.9516 6.62505 15.25 6.62505H16.8531L15.0718 4.99567C15.0597 4.98442 15.0475 4.97317 15.0362 4.96098C14.2103 4.13557 13.1942 3.52579 12.0773 3.1853C10.9603 2.84481 9.77684 2.78405 8.63092 3.00836C7.48499 3.23267 6.41176 3.73517 5.50565 4.47166C4.59954 5.20815 3.88832 6.15605 3.43457 7.23195C2.98083 8.30786 2.79846 9.47879 2.90352 10.6417C3.00858 11.8047 3.39785 12.9239 4.03707 13.9011C4.67629 14.8783 5.54587 15.6834 6.56931 16.2455C7.59274 16.8077 8.73865 17.1097 9.90622 17.125H9.99997C11.8186 17.1294 13.5693 16.4339 14.889 15.1825C15.106 14.9775 15.3955 14.8671 15.6938 14.8756C15.9922 14.884 16.275 15.0106 16.48 15.2275C16.685 15.4445 16.7954 15.734 16.787 16.0323C16.7785 16.3307 16.6519 16.6135 16.435 16.8185C14.6977 18.4651 12.3936 19.3805 9.99997 19.375H9.87153C8.33689 19.3534 6.83103 18.9553 5.48617 18.2158C4.14132 17.4762 2.9986 16.4178 2.15836 15.1334C1.31812 13.849 0.806064 12.378 0.667146 10.8495C0.528227 9.32104 0.766699 7.78181 1.36162 6.36701C1.95654 4.95221 2.88972 3.70511 4.07921 2.7352C5.2687 1.7653 6.67812 1.10227 8.18372 0.804324C9.68932 0.506378 11.245 0.582633 12.7143 1.02639C14.1835 1.47015 15.5213 2.26784 16.6103 3.34942L18.625 5.19255V3.25005C18.625 2.95168 18.7435 2.66553 18.9545 2.45455C19.1655 2.24357 19.4516 2.12505 19.75 2.12505C20.0483 2.12505 20.3345 2.24357 20.5455 2.45455C20.7564 2.66553 20.875 2.95168 20.875 3.25005Z" fill="black"/>
</svg>
